<svg xmlns:dc="http://purl.org/dc/elements/1.1/" xmlns:cc="http://creativecommons.org/ns#" xmlns:rdf="http://www.w3.org/1999/02/22-rdf-syntax-ns#" xmlns:svg="http://www.w3.org/2000/svg" xmlns="http://www.w3.org/2000/svg" xmlns:sodipodi="http://sodipodi.sourceforge.net/DTD/sodipodi-0.dtd" xmlns:inkscape="http://www.inkscape.org/namespaces/inkscape" width="100" height="100" id="svg2" version="1.1" inkscape:version="0.48.2 r9819" sodipodi:docname="trooper.svg">
  <defs id="defs4"/>
  <sodipodi:namedview id="base" pagecolor="#ffffff" bordercolor="#666666" borderopacity="1.0" inkscape:pageopacity="0.0" inkscape:pageshadow="2" inkscape:zoom="5.36" inkscape:cx="50" inkscape:cy="50" inkscape:document-units="px" inkscape:current-layer="g2995" showgrid="false" inkscape:window-width="1362" inkscape:window-height="724" inkscape:window-x="4" inkscape:window-y="0" inkscape:window-maximized="1" fit-margin-top="0" fit-margin-left="0" fit-margin-right="0" fit-margin-bottom="0" inkscape:snap-global="false">
    <inkscape:grid type="xygrid" id="grid3764"/>
  </sodipodi:namedview>
  <metadata id="metadata7">
    <rdf:RDF>
      <cc:Work rdf:about="">
        <dc:format>image/svg+xml</dc:format>
        <dc:type rdf:resource="http://purl.org/dc/dcmitype/StillImage"/>
        <dc:title/>
      </cc:Work>
    </rdf:RDF>
  </metadata>
  <g inkscape:label="Ebene 1" inkscape:groupmode="layer" id="layer1" transform="translate(-354.41668,-474.80307)">
    <g transform="matrix(-0.03022768,0,0,0.03022768,109.0054,370.38735)" id="g2995" style="stroke:#000000;stroke-opacity:1">
      <path style="font-size:medium;font-style:normal;font-variant:normal;font-weight:normal;font-stretch:normal;text-indent:0;text-align:start;text-decoration:none;line-height:normal;letter-spacing:normal;word-spacing:normal;text-transform:none;direction:ltr;block-progression:tb;writing-mode:lr-tb;text-anchor:start;baseline-shift:baseline;color:#000000;fill:#000000;fill-opacity:1;fill-rule:nonzero;stroke:none;stroke-width:19.60000038;marker:none;visibility:visible;display:inline;overflow:visible;enable-background:accumulate;font-family:Sans;-inkscape-font-specification:Sans" d="M 44.1875 5 C 41.721202 5 39.466723 6.1059643 37.875 7.875 C 37.348234 8.124729 36.85877 8.4017529 36.40625 8.75 L 36.25 9 C 36.25 9 35.653706 10.788624 35.09375 12.53125 C 34.813772 13.402566 34.532065 14.252799 34.34375 14.875 C 34.249594 15.186097 34.169831 15.451176 34.125 15.625 C 34.102583 15.711911 34.104692 15.752683 34.09375 15.84375 C 34.090999 15.866517 34.091492 15.88614 34.09375 15.9375 C 34.096017 15.988863 34.03812 16.112166 34.28125 16.3125 C 34.402814 16.412672 34.604792 16.441181 34.71875 16.40625 C 34.832705 16.371319 34.874269 16.310565 34.90625 16.28125 C 34.970209 16.222611 34.984856 16.21112 35 16.1875 C 35.310852 15.702621 35.91936 15.228651 36.6875 14.84375 L 36.6875 19.28125 C 36.731351 19.359367 36.766617 19.454638 36.8125 19.53125 L 35.71875 21.40625 L 38.28125 21.40625 C 38.455377 21.57661 38.625995 21.719956 38.8125 21.875 L 35.75 21.875 L 34.78125 22.84375 L 34.78125 23.5 C 34.555286 23.52573 34.342095 23.557242 34.125 23.625 C 33.893979 23.656286 33.671622 23.705605 33.4375 23.75 C 31.204222 24.173502 28.669408 26.571019 27.15625 29 C 26.82575 29.531756 26.647118 30.155549 26.625 30.78125 L 26.09375 43.875 C 25.909576 44.831972 26.152153 45.863357 26.71875 46.65625 C 27.285347 47.449146 28.159969 48.020497 29.125 48.15625 L 37.53125 49.4375 L 42.375 51.5 C 43.247592 51.898906 44.292724 51.940035 45.1875 51.59375 C 46.082282 51.247462 46.810785 50.5074 47.1875 49.625 C 47.564219 48.742603 47.587546 47.729491 47.21875 46.84375 C 46.849954 45.958012 46.110391 45.22929 45.21875 44.875 L 39.9375 42.625 C 39.659922 42.506547 39.392052 42.420792 39.09375 42.375 L 30.25 41 C 30.341149 40.610547 30.26387 39.743088 30.46875 39.78125 L 33.4375 40.28125 L 33.5 38.84375 L 31.8125 38.34375 L 30.375 37.90625 L 31.3125 36.71875 C 32.739204 34.993865 33.03125 32.875 33.03125 32.875 L 33.25 31.21875 L 34.625 32.1875 L 35.6875 32.9375 L 35.03125 31.4375 C 34.797336 30.90812 34.744942 30.282708 34.875 29.71875 C 35.005061 29.154792 35.307866 28.654725 35.75 28.28125 L 35.75 22.84375 L 38.875 22.84375 L 38.875 27.25 L 43.6875 26.15625 C 43.863026 26.116068 44.038732 26.06701 44.21875 26.0625 C 44.457065 26.055514 44.70566 26.100628 44.9375 26.15625 L 49.4375 27.25 L 49.4375 22.84375 L 52.59375 22.84375 L 52.59375 28.3125 C 53.035739 28.685404 53.338166 29.186653 53.46875 29.75 C 53.599364 30.313344 53.545344 30.939412 53.3125 31.46875 L 50.21875 38.4375 C 50.21875 38.4375 48.999343 38.885866 47.5625 39.28125 L 47.59375 39.4375 L 53.0625 43.3125 C 53.068425 40.91433 53.055971 38.5235 53.0625 36.125 L 54.96875 31.9375 C 55.097006 32.73088 55.286196 34.063194 55.34375 35.375 C 55.419621 37.104613 55.424859 38.861821 55.46875 40.25 L 54.09375 44.0625 L 60.21875 48.40625 L 62.5 42 C 62.659602 41.552763 62.712287 41.067959 62.6875 40.59375 L 61.4375 28.875 C 61.419515 28.70668 61.30765 28.550303 61.21875 28.40625 C 59.705583 25.977265 57.170733 24.173505 54.9375 23.75 C 54.602517 23.68648 54.265954 23.630912 53.9375 23.59375 L 53.90625 23.59375 C 53.781017 23.567679 53.658539 23.543876 53.53125 23.53125 L 53.53125 22.84375 L 52.59375 21.875 L 49.53125 21.875 C 49.717957 21.719832 49.888183 21.576734 50.0625 21.40625 L 54.375 21.40625 L 51.6875 16.71875 L 51.6875 9.5625 C 50.151955 6.8236546 47.372479 5 44.1875 5 z M 42.46875 7.875 C 43.330369 7.8740327 44.200663 7.9872174 45.03125 8.1875 C 47.775035 8.8491083 50.068378 10.536153 50.625 13.28125 L 48.625 17 C 46.422771 14.16611 43.420434 13.055404 40.71875 13 C 38.709592 12.9588 36.865788 13.450739 35.5625 14.3125 C 35.707031 13.851679 35.864384 13.33179 36.03125 12.8125 C 36.552947 11.188929 37.055162 9.6493598 37.125 9.4375 C 38.536191 8.4038222 40.484082 7.8771583 42.46875 7.875 z M 42.5625 8.40625 C 41.037731 8.4154846 38.52167 8.7222306 37.59375 10 L 37.40625 10.25 L 36.46875 12.9375 C 36.46875 12.9375 38.251897 10.871417 38.3125 10.6875 C 39.242971 8.8846637 43.713129 8.4517754 43.78125 8.53125 C 43.754622 8.4691291 43.255578 8.4020484 42.5625 8.40625 z M 41.875 14.28125 C 42.384257 14.29745 42.924088 14.422777 43.53125 14.625 C 43.500738 14.843939 43.46875 15.075192 43.46875 15.3125 C 43.46875 16.550967 43.875255 17.53125 44.375 17.53125 C 44.861433 17.53125 45.260378 16.597819 45.28125 15.40625 C 45.763833 15.684407 46.250968 16.035887 46.78125 16.4375 C 47.3156 16.93752 47.819982 17.502807 48.28125 18.1875 L 48.59375 18.1875 C 47.90273 19.938006 46.621196 21.2507 45.0625 21.8125 L 45.0625 21.53125 C 45.062984 21.292566 44.832434 21.093263 44.59375 21.09375 L 42.375 21.09375 C 42.136322 21.093266 41.905763 21.292566 41.90625 21.53125 L 41.90625 21.875 C 40.01731 21.274461 38.492755 19.559057 37.90625 17.3125 C 38.158287 16.165477 39.06556 14.903368 40.59375 14.46875 C 40.524056 14.758601 40.46875 15.076107 40.46875 15.4375 C 40.46875 16.50597 40.818847 17.375 41.25 17.375 C 41.681153 17.375 42.03125 16.50597 42.03125 15.4375 C 42.03125 14.997543 41.974935 14.606831 41.875 14.28125 z M 46.15625 17.78125 C 46.078127 17.781552 46.016328 17.791165 45.9375 17.8125 L 46 18.09375 C 46.174822 18.046435 46.36851 18.096503 46.53125 18.1875 C 45.985758 19.368644 44.679632 20.085859 43.34375 20.15625 C 41.997896 20.227167 40.672846 19.664655 40.125 18.375 C 40.187689 18.330571 40.265031 18.306557 40.34375 18.28125 L 40.25 18 C 39.992738 18.082703 39.780601 18.226707 39.65625 18.40625 C 39.531899 18.58579 39.470023 18.792804 39.5 18.96875 L 39.8125 18.90625 C 39.8077 18.878093 39.808565 18.803965 39.84375 18.71875 C 40.509267 20.051797 41.934938 20.605483 43.34375 20.53125 C 44.760017 20.456621 46.193012 19.740664 46.84375 18.46875 C 46.91659 18.575242 46.953403 18.692934 46.96875 18.8125 L 47.28125 18.78125 C 47.24183 18.474107 47.057314 18.183313 46.8125 18 C 46.628888 17.862518 46.390626 17.78034 46.15625 17.78125 z M 39.09375 22.09375 C 39.867421 22.68682 40.724521 23.169762 41.65625 23.46875 L 39.84375 23.46875 L 39.84375 22.84375 L 39.09375 22.09375 z M 49.15625 22.1875 L 48.5 22.84375 L 48.5 23.46875 L 48.28125 23.4375 L 48.25 23.4375 L 46.71875 23.46875 C 47.601658 23.183259 48.414732 22.738487 49.15625 22.1875 z M 55.875 24.78125 L 59.09375 28 L 58.5 28.625 L 55.25 25.40625 L 55.875 24.78125 z M 32.21875 24.9375 L 32.84375 25.5625 L 29.59375 28.78125 L 28.96875 28.15625 L 32.21875 24.9375 z M 42.9375 27.40625 C 41.412728 27.415488 37.302923 28.315981 36.375 29.59375 L 36.1875 29.8125 L 36.9375 32.46875 C 36.9375 32.46875 37.033147 30.465167 37.09375 30.28125 C 38.024221 28.478414 44.056882 27.451775 44.125 27.53125 C 44.098375 27.469126 43.630575 27.402051 42.9375 27.40625 z M 34.125 33.0625 C 34.125 33.0625 33.820838 35.431545 32.1875 37.40625 L 40.9375 40.0625 L 44 42.28125 L 43.84375 42.71875 C 43.965223 42.807683 44.0434 42.977212 44.09375 43.1875 L 45.65625 43.84375 C 46.231969 44.080137 46.747603 44.434755 47.1875 44.875 C 47.627397 45.315248 47.982823 45.861596 48.21875 46.4375 C 48.24665 46.505609 48.287822 46.555658 48.3125 46.625 L 49.09375 47.1875 L 48.71875 48.03125 L 48.84375 48.3125 L 48.53125 48.9375 C 48.518733 49.018543 48.485481 49.107218 48.46875 49.1875 C 48.405254 49.492132 48.309704 49.776319 48.1875 50.0625 C 47.959372 50.596744 47.624421 51.08423 47.21875 51.5 L 47.125 51.71875 L 50.28125 53.3125 L 53.0625 48.1875 L 53.375 48.21875 L 53.5 48.96875 L 67.46875 57.3125 L 67.65625 57.03125 L 71.6875 59.875 L 71.46875 60.15625 L 73.28125 61.4375 L 73.96875 60.46875 L 72.15625 59.1875 L 72.09375 59.3125 L 68.0625 56.46875 L 68.65625 55.625 L 69.59375 54.3125 L 68.96875 53.875 L 68.03125 55.1875 L 64.21875 52.5 L 64.34375 51.90625 L 63.5625 51.34375 L 63.0625 51.65625 L 46.65625 40.03125 L 46.5625 38.625 L 45.9375 38.71875 L 45.84375 39.46875 L 44.09375 38.21875 L 40.8125 37.75 L 34.125 33.0625 z M 35.28125 39.375 L 35.28125 40.59375 L 39.34375 41.28125 C 39.705379 41.34332 40.037562 41.449667 40.375 41.59375 L 42.6875 42.59375 L 40.40625 40.9375 L 35.28125 39.375 z M 41.21875 44.34375 L 45.4375 46.09375 L 45.09375 46.90625 L 40.875 45.15625 L 41.21875 44.34375 z M 40.4375 46.1875 L 44.65625 47.96875 L 44.3125 48.75 L 40.09375 47 L 40.4375 46.1875 z M 39.6875 48.0625 L 43.875 49.8125 L 43.5625 50.625 L 39.34375 48.875 L 39.6875 48.0625 z M 53.21875 49.96875 L 51.15625 53.8125 L 50.6875 54.65625 L 49.8125 54.25 L 46.65625 52.65625 L 46.0625 52.375 C 45.903814 52.459595 45.761096 52.527908 45.59375 52.59375 C 45.304178 52.707678 44.99383 52.789038 44.6875 52.84375 C 44.38117 52.898462 44.061106 52.944144 43.75 52.9375 C 43.438894 52.930856 43.147466 52.880243 42.84375 52.8125 C 42.540031 52.74476 42.221945 52.657438 41.9375 52.53125 L 37.1875 50.5 L 35.28125 50.15625 C 35.279799 51.682025 35.251956 53.15739 35.25 54.6875 L 40.40625 56.0625 L 40.15625 57.03125 L 35.25 55.71875 C 35.229838 70.698932 35.201115 82.589661 35.1875 87.1875 L 40.15625 85.875 L 40.40625 86.8125 L 35.1875 88.21875 C 35.185807 88.785183 35.1875 91.34375 35.1875 91.34375 C 35.174294 92.294474 35.552112 93.228276 36.21875 93.90625 C 36.885388 94.584224 37.830435 94.99718 38.78125 95 C 39.732065 95.002811 40.673101 94.611505 41.34375 93.9375 C 42.014399 93.263495 42.413816 92.325791 42.40625 91.375 C 42.40625 91.375 42.441947 75.564309 42.46875 58.40625 L 45.8125 58.40625 C 45.810535 69.395759 45.857228 80.377224 45.96875 91.375 C 45.972535 92.322701 46.356529 93.271989 47.03125 93.9375 C 47.705971 94.603011 48.646088 94.977988 49.59375 94.96875 C 50.541418 94.959509 51.494617 94.584789 52.15625 93.90625 C 52.817843 93.227711 53.202191 92.260095 53.1875 91.3125 C 53.174532 90.034573 53.167162 88.746846 53.15625 87.46875 L 52.90625 88.34375 L 47.28125 86.8125 L 47.53125 85.875 L 53.15625 87.375 C 53.066141 76.767862 53.023784 66.148064 53.03125 55.53125 L 47.53125 57.03125 L 47.28125 56.0625 L 52.90625 54.5625 L 53.03125 55.03125 C 53.032157 53.962097 53.029739 52.881729 53.03125 51.8125 C 53.564345 52.530362 54.371644 53.051367 55.25 53.21875 C 56.128356 53.386136 57.084007 53.190238 57.84375 52.71875 L 53.21875 49.96875 z M 36.375 69.4375 L 40.9375 69.4375 L 40.9375 70.3125 L 36.375 70.3125 L 36.375 69.4375 z M 47.125 69.4375 L 51.6875 69.4375 L 51.6875 70.3125 L 47.125 70.3125 L 47.125 69.4375 z M 36.375 71.4375 L 40.9375 71.4375 L 40.9375 72.3125 L 36.375 72.3125 L 36.375 71.4375 z M 47.125 71.4375 L 51.6875 71.4375 L 51.6875 72.3125 L 47.125 72.3125 L 47.125 71.4375 z M 36.375 73.4375 L 40.9375 73.4375 L 40.9375 74.3125 L 36.375 74.3125 L 36.375 73.4375 z M 47.125 73.4375 L 51.6875 73.4375 L 51.6875 74.3125 L 47.125 74.3125 L 47.125 73.4375 z " transform="matrix(-33.082261,0,0,33.082261,-8118.76,3454.3081)" id="path4667"/>
    </g>
  </g>
</svg>